<mxfile host="app.diagrams.net" agent="Mozilla/5.0 (Windows NT 10.0; Win64; x64) AppleWebKit/537.36 (KHTML, like Gecko) Chrome/136.0.0.0 Safari/537.36" version="27.0.6">
  <diagram name="Página-1" id="B26ktfFtU5WP5JtoC-X8">
    <mxGraphModel dx="2852" dy="1990" grid="1" gridSize="10" guides="1" tooltips="1" connect="1" arrows="1" fold="1" page="0" pageScale="1" pageWidth="827" pageHeight="1169" math="0" shadow="0">
      <root>
        <mxCell id="0" />
        <mxCell id="1" parent="0" />
        <object label="&lt;font style=&quot;font-size: 12px&quot;&gt;Fechamento RFIN&lt;br&gt;&lt;/font&gt;" id="hWpidcnC6tugBeaJJdCY-1">
          <mxCell style="swimlane;html=1;childLayout=stackLayout;horizontal=1;startSize=20;horizontalStack=0;rounded=0;shadow=0;labelBackgroundColor=none;strokeWidth=1;fontFamily=Verdana;fontSize=8;align=center;fillColor=#E6E6E6;gradientColor=none;" vertex="1" parent="1">
            <mxGeometry x="185" y="-41" width="2725" height="921" as="geometry">
              <mxRectangle x="180" y="74" width="230" height="20" as="alternateBounds" />
            </mxGeometry>
          </mxCell>
        </object>
        <mxCell id="hWpidcnC6tugBeaJJdCY-2" value="TM1" style="swimlane;html=1;startSize=20;horizontal=0;fillColor=#CCCCFF;" vertex="1" parent="hWpidcnC6tugBeaJJdCY-1">
          <mxGeometry y="20" width="2725" height="150" as="geometry">
            <mxRectangle y="170" width="760" height="20" as="alternateBounds" />
          </mxGeometry>
        </mxCell>
        <mxCell id="hWpidcnC6tugBeaJJdCY-3" value="" style="ellipse;whiteSpace=wrap;html=1;rounded=0;shadow=0;labelBackgroundColor=none;strokeWidth=1;fontFamily=Verdana;fontSize=8;align=center;fillColor=#B3FF66;" vertex="1" parent="hWpidcnC6tugBeaJJdCY-2">
          <mxGeometry x="34" y="60" width="30" height="30" as="geometry" />
        </mxCell>
        <mxCell id="hWpidcnC6tugBeaJJdCY-4" value="" style="ellipse;whiteSpace=wrap;html=1;rounded=0;shadow=0;labelBackgroundColor=none;strokeWidth=1;fontFamily=Verdana;fontSize=8;align=center;fillColor=#EA6B66;" vertex="1" parent="hWpidcnC6tugBeaJJdCY-2">
          <mxGeometry x="2685" y="68" width="30" height="30" as="geometry" />
        </mxCell>
        <mxCell id="hWpidcnC6tugBeaJJdCY-41" value="" style="endArrow=classic;html=1;rounded=0;fontSize=12;startSize=8;endSize=8;curved=1;entryX=-0.032;entryY=0.542;entryDx=0;entryDy=0;entryPerimeter=0;exitX=1;exitY=0.5;exitDx=0;exitDy=0;" edge="1" parent="hWpidcnC6tugBeaJJdCY-2" target="hWpidcnC6tugBeaJJdCY-4" source="hWpidcnC6tugBeaJJdCY-233">
          <mxGeometry width="50" height="50" relative="1" as="geometry">
            <mxPoint x="3885" y="78.5" as="sourcePoint" />
            <mxPoint x="3703" y="78.4" as="targetPoint" />
          </mxGeometry>
        </mxCell>
        <mxCell id="hWpidcnC6tugBeaJJdCY-176" value="Atualiza Centros de Custos" style="rounded=1;whiteSpace=wrap;html=1;shadow=0;labelBackgroundColor=none;strokeWidth=1;fontFamily=Verdana;fontSize=8;align=center;fillColor=#CCE5FF;" vertex="1" parent="hWpidcnC6tugBeaJJdCY-2">
          <mxGeometry x="1477" y="23" width="70" height="37" as="geometry" />
        </mxCell>
        <mxCell id="hWpidcnC6tugBeaJJdCY-177" value="" style="shape=umlActor;verticalLabelPosition=bottom;verticalAlign=top;html=1;outlineConnect=0;" vertex="1" parent="hWpidcnC6tugBeaJJdCY-2">
          <mxGeometry x="1535" y="46" width="10" height="14" as="geometry" />
        </mxCell>
        <mxCell id="hWpidcnC6tugBeaJJdCY-178" style="edgeStyle=orthogonalEdgeStyle;rounded=0;orthogonalLoop=1;jettySize=auto;html=1;exitX=1;exitY=0.5;exitDx=0;exitDy=0;fontSize=10;" edge="1" parent="hWpidcnC6tugBeaJJdCY-2">
          <mxGeometry relative="1" as="geometry">
            <mxPoint x="1435" y="211.94" as="sourcePoint" />
            <mxPoint x="1475" y="41" as="targetPoint" />
            <Array as="points">
              <mxPoint x="1445" y="212" />
              <mxPoint x="1445" y="41" />
              <mxPoint x="1475" y="41" />
            </Array>
          </mxGeometry>
        </mxCell>
        <mxCell id="hWpidcnC6tugBeaJJdCY-180" value="Atualiza Contas Contábeis" style="rounded=1;whiteSpace=wrap;html=1;shadow=0;labelBackgroundColor=none;strokeWidth=1;fontFamily=Verdana;fontSize=8;align=center;fillColor=#CCE5FF;" vertex="1" parent="hWpidcnC6tugBeaJJdCY-2">
          <mxGeometry x="1533" y="66" width="70" height="37" as="geometry" />
        </mxCell>
        <mxCell id="hWpidcnC6tugBeaJJdCY-181" value="" style="shape=umlActor;verticalLabelPosition=bottom;verticalAlign=top;html=1;outlineConnect=0;" vertex="1" parent="hWpidcnC6tugBeaJJdCY-2">
          <mxGeometry x="1593" y="87.5" width="10" height="14" as="geometry" />
        </mxCell>
        <mxCell id="hWpidcnC6tugBeaJJdCY-182" style="edgeStyle=orthogonalEdgeStyle;rounded=0;orthogonalLoop=1;jettySize=auto;html=1;fontSize=10;exitX=0.25;exitY=1;exitDx=0;exitDy=0;" edge="1" parent="hWpidcnC6tugBeaJJdCY-2" source="hWpidcnC6tugBeaJJdCY-176">
          <mxGeometry relative="1" as="geometry">
            <mxPoint x="1492" y="80" as="sourcePoint" />
            <mxPoint x="1532" y="80" as="targetPoint" />
            <Array as="points">
              <mxPoint x="1492" y="60" />
              <mxPoint x="1492" y="80" />
            </Array>
          </mxGeometry>
        </mxCell>
        <mxCell id="hWpidcnC6tugBeaJJdCY-183" value="Atualiza Produtos" style="rounded=1;whiteSpace=wrap;html=1;shadow=0;labelBackgroundColor=none;strokeWidth=1;fontFamily=Verdana;fontSize=8;align=center;fillColor=#CCE5FF;" vertex="1" parent="hWpidcnC6tugBeaJJdCY-2">
          <mxGeometry x="1593" y="23" width="70" height="37" as="geometry" />
        </mxCell>
        <mxCell id="hWpidcnC6tugBeaJJdCY-184" value="" style="shape=umlActor;verticalLabelPosition=bottom;verticalAlign=top;html=1;outlineConnect=0;fixDash=0;" vertex="1" parent="hWpidcnC6tugBeaJJdCY-2">
          <mxGeometry x="1653" y="43.5" width="10" height="14" as="geometry" />
        </mxCell>
        <mxCell id="hWpidcnC6tugBeaJJdCY-186" value="Atualiza Despesas Consolidadas Realizadas" style="rounded=1;whiteSpace=wrap;html=1;shadow=0;labelBackgroundColor=none;strokeWidth=1;fontFamily=Verdana;fontSize=8;align=center;fillColor=#CCE5FF;" vertex="1" parent="hWpidcnC6tugBeaJJdCY-2">
          <mxGeometry x="1649" y="66" width="70" height="37" as="geometry" />
        </mxCell>
        <mxCell id="hWpidcnC6tugBeaJJdCY-187" value="" style="shape=umlActor;verticalLabelPosition=bottom;verticalAlign=top;html=1;outlineConnect=0;" vertex="1" parent="hWpidcnC6tugBeaJJdCY-2">
          <mxGeometry x="1709" y="88.5" width="10" height="14" as="geometry" />
        </mxCell>
        <mxCell id="hWpidcnC6tugBeaJJdCY-189" value="Atualiza Preço Médio SAP" style="rounded=1;whiteSpace=wrap;html=1;shadow=0;labelBackgroundColor=none;strokeWidth=1;fontFamily=Verdana;fontSize=8;align=center;fillColor=#CCE5FF;" vertex="1" parent="hWpidcnC6tugBeaJJdCY-2">
          <mxGeometry x="1709" y="24" width="70" height="37" as="geometry" />
        </mxCell>
        <mxCell id="hWpidcnC6tugBeaJJdCY-190" value="" style="shape=umlActor;verticalLabelPosition=bottom;verticalAlign=top;html=1;outlineConnect=0;" vertex="1" parent="hWpidcnC6tugBeaJJdCY-2">
          <mxGeometry x="1769" y="46.5" width="10" height="14" as="geometry" />
        </mxCell>
        <mxCell id="hWpidcnC6tugBeaJJdCY-192" value="Atualiza Mapa de Lote &lt;br&gt;Ordem" style="rounded=1;whiteSpace=wrap;html=1;shadow=0;labelBackgroundColor=none;strokeWidth=1;fontFamily=Verdana;fontSize=8;align=center;fillColor=#CCE5FF;" vertex="1" parent="hWpidcnC6tugBeaJJdCY-2">
          <mxGeometry x="1765" y="64.5" width="70" height="37" as="geometry" />
        </mxCell>
        <mxCell id="hWpidcnC6tugBeaJJdCY-193" value="" style="shape=umlActor;verticalLabelPosition=bottom;verticalAlign=top;html=1;outlineConnect=0;" vertex="1" parent="hWpidcnC6tugBeaJJdCY-2">
          <mxGeometry x="1825" y="87" width="10" height="14" as="geometry" />
        </mxCell>
        <mxCell id="hWpidcnC6tugBeaJJdCY-195" value="Atualiza Estrutura de Ordens" style="rounded=1;whiteSpace=wrap;html=1;shadow=0;labelBackgroundColor=none;strokeWidth=1;fontFamily=Verdana;fontSize=8;align=center;fillColor=#CCE5FF;" vertex="1" parent="hWpidcnC6tugBeaJJdCY-2">
          <mxGeometry x="1825" y="23.5" width="70" height="37" as="geometry" />
        </mxCell>
        <mxCell id="hWpidcnC6tugBeaJJdCY-196" value="" style="shape=umlActor;verticalLabelPosition=bottom;verticalAlign=top;html=1;outlineConnect=0;" vertex="1" parent="hWpidcnC6tugBeaJJdCY-2">
          <mxGeometry x="1885" y="46" width="10" height="14" as="geometry" />
        </mxCell>
        <mxCell id="hWpidcnC6tugBeaJJdCY-198" value="Atualiza Estrutura de Ordens &lt;br&gt;por Lote" style="rounded=1;whiteSpace=wrap;html=1;shadow=0;labelBackgroundColor=none;strokeWidth=1;fontFamily=Verdana;fontSize=8;align=center;fillColor=#CCE5FF;" vertex="1" parent="hWpidcnC6tugBeaJJdCY-2">
          <mxGeometry x="1885" y="65" width="70" height="37" as="geometry" />
        </mxCell>
        <mxCell id="hWpidcnC6tugBeaJJdCY-199" value="" style="shape=umlActor;verticalLabelPosition=bottom;verticalAlign=top;html=1;outlineConnect=0;" vertex="1" parent="hWpidcnC6tugBeaJJdCY-2">
          <mxGeometry x="1945" y="87.5" width="10" height="14" as="geometry" />
        </mxCell>
        <mxCell id="hWpidcnC6tugBeaJJdCY-201" value="Carga de Horas Apontadas Por Evento" style="rounded=1;whiteSpace=wrap;html=1;shadow=0;labelBackgroundColor=none;strokeWidth=1;fontFamily=Verdana;fontSize=8;align=center;fillColor=#CCE5FF;" vertex="1" parent="hWpidcnC6tugBeaJJdCY-2">
          <mxGeometry x="1945" y="24" width="70" height="37" as="geometry" />
        </mxCell>
        <mxCell id="hWpidcnC6tugBeaJJdCY-202" value="" style="shape=umlActor;verticalLabelPosition=bottom;verticalAlign=top;html=1;outlineConnect=0;" vertex="1" parent="hWpidcnC6tugBeaJJdCY-2">
          <mxGeometry x="2005" y="46.5" width="10" height="14" as="geometry" />
        </mxCell>
        <mxCell id="hWpidcnC6tugBeaJJdCY-204" value="Carga de Horas Apontadas Por Evento OP" style="rounded=1;whiteSpace=wrap;html=1;shadow=0;labelBackgroundColor=none;strokeWidth=1;fontFamily=Verdana;fontSize=8;align=center;fillColor=#CCE5FF;" vertex="1" parent="hWpidcnC6tugBeaJJdCY-2">
          <mxGeometry x="2005" y="65.5" width="70" height="37" as="geometry" />
        </mxCell>
        <mxCell id="hWpidcnC6tugBeaJJdCY-205" value="" style="shape=umlActor;verticalLabelPosition=bottom;verticalAlign=top;html=1;outlineConnect=0;" vertex="1" parent="hWpidcnC6tugBeaJJdCY-2">
          <mxGeometry x="2065" y="88" width="10" height="14" as="geometry" />
        </mxCell>
        <mxCell id="hWpidcnC6tugBeaJJdCY-214" value="Carga de Horas Disponíveis" style="rounded=1;whiteSpace=wrap;html=1;shadow=0;labelBackgroundColor=none;strokeWidth=1;fontFamily=Verdana;fontSize=8;align=center;fillColor=#CCE5FF;" vertex="1" parent="hWpidcnC6tugBeaJJdCY-2">
          <mxGeometry x="2065" y="23.5" width="70" height="37" as="geometry" />
        </mxCell>
        <mxCell id="hWpidcnC6tugBeaJJdCY-215" value="" style="shape=umlActor;verticalLabelPosition=bottom;verticalAlign=top;html=1;outlineConnect=0;" vertex="1" parent="hWpidcnC6tugBeaJJdCY-2">
          <mxGeometry x="2125" y="46.5" width="10" height="14" as="geometry" />
        </mxCell>
        <mxCell id="hWpidcnC6tugBeaJJdCY-216" value="Carga Base Ordens Semi-Acabado Insumos" style="rounded=1;whiteSpace=wrap;html=1;shadow=0;labelBackgroundColor=none;strokeWidth=1;fontFamily=Verdana;fontSize=8;align=center;fillColor=#CCE5FF;" vertex="1" parent="hWpidcnC6tugBeaJJdCY-2">
          <mxGeometry x="2125" y="65.5" width="70" height="37" as="geometry" />
        </mxCell>
        <mxCell id="hWpidcnC6tugBeaJJdCY-217" value="" style="shape=umlActor;verticalLabelPosition=bottom;verticalAlign=top;html=1;outlineConnect=0;" vertex="1" parent="hWpidcnC6tugBeaJJdCY-2">
          <mxGeometry x="2185" y="87" width="10" height="14" as="geometry" />
        </mxCell>
        <mxCell id="hWpidcnC6tugBeaJJdCY-219" value="Carga Base Ordens Semi-Acabado Produto" style="rounded=1;whiteSpace=wrap;html=1;shadow=0;labelBackgroundColor=none;strokeWidth=1;fontFamily=Verdana;fontSize=8;align=center;fillColor=#CCE5FF;" vertex="1" parent="hWpidcnC6tugBeaJJdCY-2">
          <mxGeometry x="2185" y="24" width="70" height="37" as="geometry" />
        </mxCell>
        <mxCell id="hWpidcnC6tugBeaJJdCY-220" value="" style="shape=umlActor;verticalLabelPosition=bottom;verticalAlign=top;html=1;outlineConnect=0;fixDash=0;" vertex="1" parent="hWpidcnC6tugBeaJJdCY-2">
          <mxGeometry x="2245" y="44.5" width="10" height="14" as="geometry" />
        </mxCell>
        <mxCell id="hWpidcnC6tugBeaJJdCY-221" value="Carga de Base&amp;nbsp; Custo de Semi-Acabado Insumos" style="rounded=1;whiteSpace=wrap;html=1;shadow=0;labelBackgroundColor=none;strokeWidth=1;fontFamily=Verdana;fontSize=8;align=center;fillColor=#CCE5FF;" vertex="1" parent="hWpidcnC6tugBeaJJdCY-2">
          <mxGeometry x="2245" y="65.5" width="70" height="37" as="geometry" />
        </mxCell>
        <mxCell id="hWpidcnC6tugBeaJJdCY-222" value="" style="shape=umlActor;verticalLabelPosition=bottom;verticalAlign=top;html=1;outlineConnect=0;" vertex="1" parent="hWpidcnC6tugBeaJJdCY-2">
          <mxGeometry x="2305" y="88" width="10" height="14" as="geometry" />
        </mxCell>
        <mxCell id="hWpidcnC6tugBeaJJdCY-223" value="Carga de Base&amp;nbsp; Custo de Semi-Acabado Produto" style="rounded=1;whiteSpace=wrap;html=1;shadow=0;labelBackgroundColor=none;strokeWidth=1;fontFamily=Verdana;fontSize=8;align=center;fillColor=#CCE5FF;" vertex="1" parent="hWpidcnC6tugBeaJJdCY-2">
          <mxGeometry x="2305" y="24" width="70" height="37" as="geometry" />
        </mxCell>
        <mxCell id="hWpidcnC6tugBeaJJdCY-224" value="" style="shape=umlActor;verticalLabelPosition=bottom;verticalAlign=top;html=1;outlineConnect=0;" vertex="1" parent="hWpidcnC6tugBeaJJdCY-2">
          <mxGeometry x="2365" y="46.5" width="10" height="14" as="geometry" />
        </mxCell>
        <mxCell id="hWpidcnC6tugBeaJJdCY-225" value="Carga de Base&amp;nbsp; Custo de Acabado Insumos" style="rounded=1;whiteSpace=wrap;html=1;shadow=0;labelBackgroundColor=none;strokeWidth=1;fontFamily=Verdana;fontSize=8;align=center;fillColor=#CCE5FF;" vertex="1" parent="hWpidcnC6tugBeaJJdCY-2">
          <mxGeometry x="2365" y="65.5" width="70" height="37" as="geometry" />
        </mxCell>
        <mxCell id="hWpidcnC6tugBeaJJdCY-226" value="" style="shape=umlActor;verticalLabelPosition=bottom;verticalAlign=top;html=1;outlineConnect=0;" vertex="1" parent="hWpidcnC6tugBeaJJdCY-2">
          <mxGeometry x="2425" y="88" width="10" height="14" as="geometry" />
        </mxCell>
        <mxCell id="hWpidcnC6tugBeaJJdCY-227" value="Carga de Base&amp;nbsp; Custo de Acabado Produto" style="rounded=1;whiteSpace=wrap;html=1;shadow=0;labelBackgroundColor=none;strokeWidth=1;fontFamily=Verdana;fontSize=8;align=center;fillColor=#CCE5FF;" vertex="1" parent="hWpidcnC6tugBeaJJdCY-2">
          <mxGeometry x="2425" y="25" width="70" height="37" as="geometry" />
        </mxCell>
        <mxCell id="hWpidcnC6tugBeaJJdCY-228" value="" style="shape=umlActor;verticalLabelPosition=bottom;verticalAlign=top;html=1;outlineConnect=0;" vertex="1" parent="hWpidcnC6tugBeaJJdCY-2">
          <mxGeometry x="2485" y="47.5" width="10" height="14" as="geometry" />
        </mxCell>
        <mxCell id="hWpidcnC6tugBeaJJdCY-231" value="Carga Base AG" style="rounded=1;whiteSpace=wrap;html=1;shadow=0;labelBackgroundColor=none;strokeWidth=1;fontFamily=Verdana;fontSize=8;align=center;fillColor=#CCE5FF;" vertex="1" parent="hWpidcnC6tugBeaJJdCY-2">
          <mxGeometry x="2545" y="25" width="70" height="37" as="geometry" />
        </mxCell>
        <mxCell id="hWpidcnC6tugBeaJJdCY-232" value="" style="shape=umlActor;verticalLabelPosition=bottom;verticalAlign=top;html=1;outlineConnect=0;" vertex="1" parent="hWpidcnC6tugBeaJJdCY-2">
          <mxGeometry x="2605" y="47.5" width="10" height="14" as="geometry" />
        </mxCell>
        <mxCell id="hWpidcnC6tugBeaJJdCY-233" value="Carga Base Revenda" style="rounded=1;whiteSpace=wrap;html=1;shadow=0;labelBackgroundColor=none;strokeWidth=1;fontFamily=Verdana;fontSize=8;align=center;fillColor=#CCE5FF;" vertex="1" parent="hWpidcnC6tugBeaJJdCY-2">
          <mxGeometry x="2585" y="66" width="70" height="37" as="geometry" />
        </mxCell>
        <mxCell id="hWpidcnC6tugBeaJJdCY-234" value="" style="shape=umlActor;verticalLabelPosition=bottom;verticalAlign=top;html=1;outlineConnect=0;" vertex="1" parent="hWpidcnC6tugBeaJJdCY-2">
          <mxGeometry x="2645" y="88.5" width="10" height="14" as="geometry" />
        </mxCell>
        <mxCell id="hWpidcnC6tugBeaJJdCY-206" style="edgeStyle=orthogonalEdgeStyle;rounded=0;orthogonalLoop=1;jettySize=auto;html=1;fontSize=10;exitX=0.288;exitY=0.003;exitDx=0;exitDy=0;exitPerimeter=0;" edge="1" parent="hWpidcnC6tugBeaJJdCY-2" source="hWpidcnC6tugBeaJJdCY-180">
          <mxGeometry relative="1" as="geometry">
            <mxPoint x="1552.4000000000005" y="67.18799999999993" as="sourcePoint" />
            <mxPoint x="1593" y="40.82" as="targetPoint" />
            <Array as="points">
              <mxPoint x="1552" y="66" />
              <mxPoint x="1552" y="41" />
            </Array>
          </mxGeometry>
        </mxCell>
        <mxCell id="hWpidcnC6tugBeaJJdCY-262" style="edgeStyle=orthogonalEdgeStyle;rounded=0;orthogonalLoop=1;jettySize=auto;html=1;fontSize=10;exitX=0.25;exitY=1;exitDx=0;exitDy=0;" edge="1" parent="hWpidcnC6tugBeaJJdCY-2">
          <mxGeometry relative="1" as="geometry">
            <mxPoint x="1611" y="60" as="sourcePoint" />
            <mxPoint x="1648" y="80" as="targetPoint" />
            <Array as="points">
              <mxPoint x="1608" y="60" />
              <mxPoint x="1608" y="80" />
            </Array>
          </mxGeometry>
        </mxCell>
        <mxCell id="hWpidcnC6tugBeaJJdCY-263" style="edgeStyle=orthogonalEdgeStyle;rounded=0;orthogonalLoop=1;jettySize=auto;html=1;fontSize=10;exitX=0.25;exitY=0;exitDx=0;exitDy=0;" edge="1" parent="hWpidcnC6tugBeaJJdCY-2" source="hWpidcnC6tugBeaJJdCY-186">
          <mxGeometry relative="1" as="geometry">
            <mxPoint x="1668.4000000000005" y="66.99799999999993" as="sourcePoint" />
            <mxPoint x="1709" y="40.629999999999995" as="targetPoint" />
            <Array as="points">
              <mxPoint x="1668" y="66" />
              <mxPoint x="1668" y="41" />
            </Array>
          </mxGeometry>
        </mxCell>
        <mxCell id="hWpidcnC6tugBeaJJdCY-264" style="edgeStyle=orthogonalEdgeStyle;rounded=0;orthogonalLoop=1;jettySize=auto;html=1;fontSize=10;exitX=0.25;exitY=1;exitDx=0;exitDy=0;" edge="1" parent="hWpidcnC6tugBeaJJdCY-2">
          <mxGeometry relative="1" as="geometry">
            <mxPoint x="1727" y="61" as="sourcePoint" />
            <mxPoint x="1764" y="81" as="targetPoint" />
            <Array as="points">
              <mxPoint x="1724" y="61" />
              <mxPoint x="1724" y="81" />
            </Array>
          </mxGeometry>
        </mxCell>
        <mxCell id="hWpidcnC6tugBeaJJdCY-265" style="edgeStyle=orthogonalEdgeStyle;rounded=0;orthogonalLoop=1;jettySize=auto;html=1;fontSize=10;" edge="1" parent="hWpidcnC6tugBeaJJdCY-2" source="hWpidcnC6tugBeaJJdCY-192">
          <mxGeometry relative="1" as="geometry">
            <mxPoint x="1784" y="61" as="sourcePoint" />
            <mxPoint x="1825" y="40.129999999999995" as="targetPoint" />
            <Array as="points">
              <mxPoint x="1784" y="40" />
            </Array>
          </mxGeometry>
        </mxCell>
        <mxCell id="hWpidcnC6tugBeaJJdCY-266" style="edgeStyle=orthogonalEdgeStyle;rounded=0;orthogonalLoop=1;jettySize=auto;html=1;fontSize=10;" edge="1" parent="hWpidcnC6tugBeaJJdCY-2" source="hWpidcnC6tugBeaJJdCY-195">
          <mxGeometry relative="1" as="geometry">
            <mxPoint x="1848" y="61" as="sourcePoint" />
            <mxPoint x="1885" y="81" as="targetPoint" />
            <Array as="points">
              <mxPoint x="1845" y="81" />
            </Array>
          </mxGeometry>
        </mxCell>
        <mxCell id="hWpidcnC6tugBeaJJdCY-267" style="edgeStyle=orthogonalEdgeStyle;rounded=0;orthogonalLoop=1;jettySize=auto;html=1;fontSize=10;" edge="1" parent="hWpidcnC6tugBeaJJdCY-2" source="hWpidcnC6tugBeaJJdCY-198">
          <mxGeometry relative="1" as="geometry">
            <mxPoint x="1904.4000000000005" y="66.99799999999993" as="sourcePoint" />
            <mxPoint x="1945" y="40.629999999999995" as="targetPoint" />
            <Array as="points">
              <mxPoint x="1904" y="41" />
            </Array>
          </mxGeometry>
        </mxCell>
        <mxCell id="hWpidcnC6tugBeaJJdCY-268" style="edgeStyle=orthogonalEdgeStyle;rounded=0;orthogonalLoop=1;jettySize=auto;html=1;fontSize=10;" edge="1" parent="hWpidcnC6tugBeaJJdCY-2">
          <mxGeometry relative="1" as="geometry">
            <mxPoint x="1965" y="60" as="sourcePoint" />
            <mxPoint x="2005" y="81" as="targetPoint" />
            <Array as="points">
              <mxPoint x="1965" y="81" />
            </Array>
          </mxGeometry>
        </mxCell>
        <mxCell id="hWpidcnC6tugBeaJJdCY-269" style="edgeStyle=orthogonalEdgeStyle;rounded=0;orthogonalLoop=1;jettySize=auto;html=1;fontSize=10;exitX=0.283;exitY=-0.006;exitDx=0;exitDy=0;exitPerimeter=0;" edge="1" parent="hWpidcnC6tugBeaJJdCY-2" source="hWpidcnC6tugBeaJJdCY-204">
          <mxGeometry relative="1" as="geometry">
            <mxPoint x="2024.4000000000005" y="66.99799999999993" as="sourcePoint" />
            <mxPoint x="2065" y="40.62999999999999" as="targetPoint" />
            <Array as="points">
              <mxPoint x="2025" y="41" />
            </Array>
          </mxGeometry>
        </mxCell>
        <mxCell id="hWpidcnC6tugBeaJJdCY-270" style="edgeStyle=orthogonalEdgeStyle;rounded=0;orthogonalLoop=1;jettySize=auto;html=1;fontSize=10;" edge="1" parent="hWpidcnC6tugBeaJJdCY-2">
          <mxGeometry relative="1" as="geometry">
            <mxPoint x="2085" y="60.5" as="sourcePoint" />
            <mxPoint x="2125" y="81.5" as="targetPoint" />
            <Array as="points">
              <mxPoint x="2085" y="81.5" />
            </Array>
          </mxGeometry>
        </mxCell>
        <mxCell id="hWpidcnC6tugBeaJJdCY-271" style="edgeStyle=orthogonalEdgeStyle;rounded=0;orthogonalLoop=1;jettySize=auto;html=1;fontSize=10;exitX=0.279;exitY=0.002;exitDx=0;exitDy=0;exitPerimeter=0;" edge="1" parent="hWpidcnC6tugBeaJJdCY-2" source="hWpidcnC6tugBeaJJdCY-216">
          <mxGeometry relative="1" as="geometry">
            <mxPoint x="2144.4000000000005" y="67.49799999999993" as="sourcePoint" />
            <mxPoint x="2185" y="41.129999999999995" as="targetPoint" />
            <Array as="points">
              <mxPoint x="2144" y="41" />
            </Array>
          </mxGeometry>
        </mxCell>
        <mxCell id="hWpidcnC6tugBeaJJdCY-272" style="edgeStyle=orthogonalEdgeStyle;rounded=0;orthogonalLoop=1;jettySize=auto;html=1;fontSize=10;" edge="1" parent="hWpidcnC6tugBeaJJdCY-2">
          <mxGeometry relative="1" as="geometry">
            <mxPoint x="2205" y="60.5" as="sourcePoint" />
            <mxPoint x="2245" y="81.5" as="targetPoint" />
            <Array as="points">
              <mxPoint x="2205" y="81.5" />
            </Array>
          </mxGeometry>
        </mxCell>
        <mxCell id="hWpidcnC6tugBeaJJdCY-273" style="edgeStyle=orthogonalEdgeStyle;rounded=0;orthogonalLoop=1;jettySize=auto;html=1;fontSize=10;exitX=0.279;exitY=0.002;exitDx=0;exitDy=0;exitPerimeter=0;" edge="1" parent="hWpidcnC6tugBeaJJdCY-2">
          <mxGeometry relative="1" as="geometry">
            <mxPoint x="2265" y="65.45" as="sourcePoint" />
            <mxPoint x="2305" y="40.58" as="targetPoint" />
            <Array as="points">
              <mxPoint x="2264" y="40.45" />
            </Array>
          </mxGeometry>
        </mxCell>
        <mxCell id="hWpidcnC6tugBeaJJdCY-274" style="edgeStyle=orthogonalEdgeStyle;rounded=0;orthogonalLoop=1;jettySize=auto;html=1;fontSize=10;" edge="1" parent="hWpidcnC6tugBeaJJdCY-2">
          <mxGeometry relative="1" as="geometry">
            <mxPoint x="2325" y="61" as="sourcePoint" />
            <mxPoint x="2365" y="82" as="targetPoint" />
            <Array as="points">
              <mxPoint x="2325" y="82" />
            </Array>
          </mxGeometry>
        </mxCell>
        <mxCell id="hWpidcnC6tugBeaJJdCY-275" style="edgeStyle=orthogonalEdgeStyle;rounded=0;orthogonalLoop=1;jettySize=auto;html=1;fontSize=10;exitX=0.279;exitY=0.002;exitDx=0;exitDy=0;exitPerimeter=0;" edge="1" parent="hWpidcnC6tugBeaJJdCY-2">
          <mxGeometry relative="1" as="geometry">
            <mxPoint x="2386" y="65" as="sourcePoint" />
            <mxPoint x="2426" y="40.129999999999995" as="targetPoint" />
            <Array as="points">
              <mxPoint x="2385" y="40" />
            </Array>
          </mxGeometry>
        </mxCell>
        <mxCell id="hWpidcnC6tugBeaJJdCY-276" style="edgeStyle=orthogonalEdgeStyle;rounded=0;orthogonalLoop=1;jettySize=auto;html=1;fontSize=10;" edge="1" parent="hWpidcnC6tugBeaJJdCY-2" source="hWpidcnC6tugBeaJJdCY-227">
          <mxGeometry relative="1" as="geometry">
            <mxPoint x="2440" y="60.5" as="sourcePoint" />
            <mxPoint x="2480" y="81.5" as="targetPoint" />
            <Array as="points">
              <mxPoint x="2440" y="82" />
            </Array>
          </mxGeometry>
        </mxCell>
        <mxCell id="hWpidcnC6tugBeaJJdCY-277" style="edgeStyle=orthogonalEdgeStyle;rounded=0;orthogonalLoop=1;jettySize=auto;html=1;fontSize=10;exitX=0.357;exitY=0.071;exitDx=0;exitDy=0;exitPerimeter=0;" edge="1" parent="hWpidcnC6tugBeaJJdCY-2" source="hWpidcnC6tugBeaJJdCY-229">
          <mxGeometry relative="1" as="geometry">
            <mxPoint x="2506" y="63.95" as="sourcePoint" />
            <mxPoint x="2546" y="39.08" as="targetPoint" />
            <Array as="points">
              <mxPoint x="2505" y="39" />
            </Array>
          </mxGeometry>
        </mxCell>
        <mxCell id="hWpidcnC6tugBeaJJdCY-278" style="edgeStyle=orthogonalEdgeStyle;rounded=0;orthogonalLoop=1;jettySize=auto;html=1;fontSize=10;" edge="1" parent="hWpidcnC6tugBeaJJdCY-2">
          <mxGeometry relative="1" as="geometry">
            <mxPoint x="2555" y="61.5" as="sourcePoint" />
            <mxPoint x="2585" y="81" as="targetPoint" />
            <Array as="points">
              <mxPoint x="2555" y="81" />
            </Array>
          </mxGeometry>
        </mxCell>
        <mxCell id="hWpidcnC6tugBeaJJdCY-229" value="Carga Base CPV" style="rounded=1;whiteSpace=wrap;html=1;shadow=0;labelBackgroundColor=none;strokeWidth=1;fontFamily=Verdana;fontSize=8;align=center;fillColor=#CCE5FF;" vertex="1" parent="hWpidcnC6tugBeaJJdCY-2">
          <mxGeometry x="2480" y="66" width="70" height="37" as="geometry" />
        </mxCell>
        <mxCell id="hWpidcnC6tugBeaJJdCY-230" value="" style="shape=umlActor;verticalLabelPosition=bottom;verticalAlign=top;html=1;outlineConnect=0;" vertex="1" parent="hWpidcnC6tugBeaJJdCY-2">
          <mxGeometry x="2540" y="88.5" width="10" height="14" as="geometry" />
        </mxCell>
        <mxCell id="hWpidcnC6tugBeaJJdCY-42" value="Sharepoi&lt;span style=&quot;background-color: transparent; color: light-dark(rgb(0, 0, 0), rgb(255, 255, 255));&quot;&gt;nt&lt;/span&gt;" style="swimlane;html=1;startSize=20;horizontal=0;fillColor=#99FF99;" vertex="1" parent="hWpidcnC6tugBeaJJdCY-1">
          <mxGeometry y="170" width="2725" height="150" as="geometry">
            <mxRectangle y="320" width="760" height="20" as="alternateBounds" />
          </mxGeometry>
        </mxCell>
        <mxCell id="hWpidcnC6tugBeaJJdCY-105" value="Salvar arquivo de Ordens Produção" style="rounded=1;whiteSpace=wrap;html=1;shadow=0;labelBackgroundColor=none;strokeWidth=1;fontFamily=Verdana;fontSize=8;align=center;fillColor=#CCE5FF;" vertex="1" parent="hWpidcnC6tugBeaJJdCY-42">
          <mxGeometry x="318" y="61" width="70" height="37" as="geometry" />
        </mxCell>
        <mxCell id="hWpidcnC6tugBeaJJdCY-106" value="" style="shape=umlActor;verticalLabelPosition=bottom;verticalAlign=top;html=1;outlineConnect=0;" vertex="1" parent="hWpidcnC6tugBeaJJdCY-42">
          <mxGeometry x="373" y="84.5" width="10" height="14" as="geometry" />
        </mxCell>
        <mxCell id="hWpidcnC6tugBeaJJdCY-111" value="Salvar arquivo Taxa Hora" style="rounded=1;whiteSpace=wrap;html=1;shadow=0;labelBackgroundColor=none;strokeWidth=1;fontFamily=Verdana;fontSize=8;align=center;fillColor=#CCE5FF;" vertex="1" parent="hWpidcnC6tugBeaJJdCY-42">
          <mxGeometry x="448" y="61" width="70" height="37" as="geometry" />
        </mxCell>
        <mxCell id="hWpidcnC6tugBeaJJdCY-112" value="" style="shape=umlActor;verticalLabelPosition=bottom;verticalAlign=top;html=1;outlineConnect=0;" vertex="1" parent="hWpidcnC6tugBeaJJdCY-42">
          <mxGeometry x="503" y="84.5" width="10" height="14" as="geometry" />
        </mxCell>
        <mxCell id="hWpidcnC6tugBeaJJdCY-114" style="edgeStyle=orthogonalEdgeStyle;rounded=0;orthogonalLoop=1;jettySize=auto;html=1;exitX=0.5;exitY=1;exitDx=0;exitDy=0;fontSize=10;entryX=-0.027;entryY=0.535;entryDx=0;entryDy=0;entryPerimeter=0;" edge="1" parent="hWpidcnC6tugBeaJJdCY-42" target="hWpidcnC6tugBeaJJdCY-115">
          <mxGeometry relative="1" as="geometry">
            <mxPoint x="477" y="98" as="sourcePoint" />
            <mxPoint x="507" y="510" as="targetPoint" />
            <Array as="points">
              <mxPoint x="477" y="510" />
            </Array>
          </mxGeometry>
        </mxCell>
        <mxCell id="hWpidcnC6tugBeaJJdCY-118" value="Salvar arquivo Horas Apontadas" style="rounded=1;whiteSpace=wrap;html=1;shadow=0;labelBackgroundColor=none;strokeWidth=1;fontFamily=Verdana;fontSize=8;align=center;fillColor=#CCE5FF;" vertex="1" parent="hWpidcnC6tugBeaJJdCY-42">
          <mxGeometry x="574" y="61" width="70" height="37" as="geometry" />
        </mxCell>
        <mxCell id="hWpidcnC6tugBeaJJdCY-119" value="" style="shape=umlActor;verticalLabelPosition=bottom;verticalAlign=top;html=1;outlineConnect=0;" vertex="1" parent="hWpidcnC6tugBeaJJdCY-42">
          <mxGeometry x="629" y="84.5" width="10" height="14" as="geometry" />
        </mxCell>
        <mxCell id="hWpidcnC6tugBeaJJdCY-131" value="Salvar Arquivo Horas Apontadas&lt;br&gt;OK" style="rounded=1;whiteSpace=wrap;html=1;shadow=0;labelBackgroundColor=none;strokeWidth=1;fontFamily=Verdana;fontSize=8;align=center;fillColor=#CCE5FF;" vertex="1" parent="hWpidcnC6tugBeaJJdCY-42">
          <mxGeometry x="696" y="61" width="70" height="37" as="geometry" />
        </mxCell>
        <mxCell id="hWpidcnC6tugBeaJJdCY-132" value="" style="shape=umlActor;verticalLabelPosition=bottom;verticalAlign=top;html=1;outlineConnect=0;" vertex="1" parent="hWpidcnC6tugBeaJJdCY-42">
          <mxGeometry x="751" y="84.5" width="10" height="14" as="geometry" />
        </mxCell>
        <mxCell id="hWpidcnC6tugBeaJJdCY-139" value="Salvar Arquivo Custo &lt;br&gt;Final AG" style="rounded=1;whiteSpace=wrap;html=1;shadow=0;labelBackgroundColor=none;strokeWidth=1;fontFamily=Verdana;fontSize=8;align=center;fillColor=#CCE5FF;" vertex="1" parent="hWpidcnC6tugBeaJJdCY-42">
          <mxGeometry x="836" y="61" width="70" height="37" as="geometry" />
        </mxCell>
        <mxCell id="hWpidcnC6tugBeaJJdCY-140" value="" style="shape=umlActor;verticalLabelPosition=bottom;verticalAlign=top;html=1;outlineConnect=0;" vertex="1" parent="hWpidcnC6tugBeaJJdCY-42">
          <mxGeometry x="891" y="84.5" width="10" height="14" as="geometry" />
        </mxCell>
        <mxCell id="hWpidcnC6tugBeaJJdCY-146" value="Trata Arquivo Custo &lt;br&gt;Final AG" style="rounded=1;whiteSpace=wrap;html=1;shadow=0;labelBackgroundColor=none;strokeWidth=1;fontFamily=Verdana;fontSize=8;align=center;fillColor=#CCE5FF;" vertex="1" parent="hWpidcnC6tugBeaJJdCY-42">
          <mxGeometry x="946" y="61" width="70" height="37" as="geometry" />
        </mxCell>
        <mxCell id="hWpidcnC6tugBeaJJdCY-147" value="" style="shape=umlActor;verticalLabelPosition=bottom;verticalAlign=top;html=1;outlineConnect=0;" vertex="1" parent="hWpidcnC6tugBeaJJdCY-42">
          <mxGeometry x="1006" y="84" width="10" height="14" as="geometry" />
        </mxCell>
        <mxCell id="hWpidcnC6tugBeaJJdCY-153" value="Salvar Arquivo Custo &lt;br&gt;Final &lt;br&gt;Revenda" style="rounded=1;whiteSpace=wrap;html=1;shadow=0;labelBackgroundColor=none;strokeWidth=1;fontFamily=Verdana;fontSize=8;align=center;fillColor=#CCE5FF;" vertex="1" parent="hWpidcnC6tugBeaJJdCY-42">
          <mxGeometry x="1086" y="61" width="70" height="37" as="geometry" />
        </mxCell>
        <mxCell id="hWpidcnC6tugBeaJJdCY-154" value="" style="shape=umlActor;verticalLabelPosition=bottom;verticalAlign=top;html=1;outlineConnect=0;" vertex="1" parent="hWpidcnC6tugBeaJJdCY-42">
          <mxGeometry x="1141" y="84.5" width="10" height="14" as="geometry" />
        </mxCell>
        <mxCell id="hWpidcnC6tugBeaJJdCY-161" value="Salvar Arquivo Dados DNA Hailton&lt;br&gt;Despesa Real" style="rounded=1;whiteSpace=wrap;html=1;shadow=0;labelBackgroundColor=none;strokeWidth=1;fontFamily=Verdana;fontSize=8;align=center;fillColor=#CCE5FF;" vertex="1" parent="hWpidcnC6tugBeaJJdCY-42">
          <mxGeometry x="1236" y="61" width="70" height="37" as="geometry" />
        </mxCell>
        <mxCell id="hWpidcnC6tugBeaJJdCY-162" value="" style="shape=umlActor;verticalLabelPosition=bottom;verticalAlign=top;html=1;outlineConnect=0;" vertex="1" parent="hWpidcnC6tugBeaJJdCY-42">
          <mxGeometry x="1296" y="84.5" width="10" height="14" as="geometry" />
        </mxCell>
        <mxCell id="hWpidcnC6tugBeaJJdCY-249" style="edgeStyle=orthogonalEdgeStyle;rounded=0;orthogonalLoop=1;jettySize=auto;html=1;exitX=1;exitY=0.5;exitDx=0;exitDy=0;fontSize=10;" edge="1" parent="hWpidcnC6tugBeaJJdCY-42">
          <mxGeometry relative="1" as="geometry">
            <mxPoint x="1046" y="202.94" as="sourcePoint" />
            <mxPoint x="1086" y="81" as="targetPoint" />
            <Array as="points">
              <mxPoint x="1046" y="201" />
              <mxPoint x="1056" y="201" />
              <mxPoint x="1056" y="81" />
            </Array>
          </mxGeometry>
        </mxCell>
        <mxCell id="hWpidcnC6tugBeaJJdCY-169" value="Salvar Arquivo CPV" style="rounded=1;whiteSpace=wrap;html=1;shadow=0;labelBackgroundColor=none;strokeWidth=1;fontFamily=Verdana;fontSize=8;align=center;fillColor=#CCE5FF;" vertex="1" parent="hWpidcnC6tugBeaJJdCY-42">
          <mxGeometry x="1396" y="61" width="70" height="37" as="geometry" />
        </mxCell>
        <mxCell id="hWpidcnC6tugBeaJJdCY-170" value="" style="shape=umlActor;verticalLabelPosition=bottom;verticalAlign=top;html=1;outlineConnect=0;" vertex="1" parent="hWpidcnC6tugBeaJJdCY-42">
          <mxGeometry x="1451" y="84.5" width="10" height="14" as="geometry" />
        </mxCell>
        <mxCell id="hWpidcnC6tugBeaJJdCY-251" style="edgeStyle=orthogonalEdgeStyle;rounded=0;orthogonalLoop=1;jettySize=auto;html=1;exitX=0.361;exitY=0.029;exitDx=0;exitDy=0;fontSize=10;exitPerimeter=0;" edge="1" parent="hWpidcnC6tugBeaJJdCY-42" source="hWpidcnC6tugBeaJJdCY-172">
          <mxGeometry relative="1" as="geometry">
            <mxPoint x="1386" y="202.94" as="sourcePoint" />
            <mxPoint x="1396" y="81" as="targetPoint" />
            <Array as="points">
              <mxPoint x="1355" y="341" />
              <mxPoint x="1356" y="341" />
              <mxPoint x="1356" y="81" />
            </Array>
          </mxGeometry>
        </mxCell>
        <mxCell id="hWpidcnC6tugBeaJJdCY-252" style="edgeStyle=orthogonalEdgeStyle;rounded=0;orthogonalLoop=1;jettySize=auto;html=1;exitX=0.5;exitY=1;exitDx=0;exitDy=0;fontSize=10;" edge="1" parent="hWpidcnC6tugBeaJJdCY-42">
          <mxGeometry relative="1" as="geometry">
            <mxPoint x="726" y="98.5" as="sourcePoint" />
            <mxPoint x="766" y="221.5" as="targetPoint" />
            <Array as="points">
              <mxPoint x="726" y="221.5" />
            </Array>
          </mxGeometry>
        </mxCell>
        <mxCell id="hWpidcnC6tugBeaJJdCY-253" style="edgeStyle=orthogonalEdgeStyle;rounded=0;orthogonalLoop=1;jettySize=auto;html=1;fontSize=10;exitX=0.5;exitY=0;exitDx=0;exitDy=0;" edge="1" parent="hWpidcnC6tugBeaJJdCY-42" source="hWpidcnC6tugBeaJJdCY-128">
          <mxGeometry relative="1" as="geometry">
            <mxPoint x="668" y="371" as="sourcePoint" />
            <mxPoint x="696" y="81" as="targetPoint" />
            <Array as="points">
              <mxPoint x="666" y="490" />
              <mxPoint x="666" y="81" />
            </Array>
          </mxGeometry>
        </mxCell>
        <mxCell id="hWpidcnC6tugBeaJJdCY-254" style="edgeStyle=orthogonalEdgeStyle;rounded=0;orthogonalLoop=1;jettySize=auto;html=1;fontSize=10;exitX=0.5;exitY=0;exitDx=0;exitDy=0;" edge="1" parent="hWpidcnC6tugBeaJJdCY-42">
          <mxGeometry relative="1" as="geometry">
            <mxPoint x="545" y="491" as="sourcePoint" />
            <mxPoint x="574" y="81" as="targetPoint" />
            <Array as="points">
              <mxPoint x="544" y="490" />
              <mxPoint x="544" y="81" />
            </Array>
          </mxGeometry>
        </mxCell>
        <mxCell id="hWpidcnC6tugBeaJJdCY-257" style="edgeStyle=orthogonalEdgeStyle;rounded=0;orthogonalLoop=1;jettySize=auto;html=1;fontSize=10;" edge="1" parent="hWpidcnC6tugBeaJJdCY-42">
          <mxGeometry relative="1" as="geometry">
            <mxPoint x="135" y="202.94" as="sourcePoint" />
            <mxPoint x="165" y="81" as="targetPoint" />
            <Array as="points">
              <mxPoint x="135" y="80.94" />
            </Array>
          </mxGeometry>
        </mxCell>
        <mxCell id="hWpidcnC6tugBeaJJdCY-175" style="edgeStyle=orthogonalEdgeStyle;rounded=0;orthogonalLoop=1;jettySize=auto;html=1;fontSize=10;entryX=0;entryY=0.5;entryDx=0;entryDy=0;exitX=0.5;exitY=1;exitDx=0;exitDy=0;" edge="1" parent="hWpidcnC6tugBeaJJdCY-1" source="hWpidcnC6tugBeaJJdCY-3" target="hWpidcnC6tugBeaJJdCY-43">
          <mxGeometry relative="1" as="geometry">
            <mxPoint x="55" y="131" as="sourcePoint" />
            <mxPoint x="118" y="223" as="targetPoint" />
            <Array as="points">
              <mxPoint x="49" y="390" />
            </Array>
          </mxGeometry>
        </mxCell>
        <mxCell id="hWpidcnC6tugBeaJJdCY-77" value="SAP" style="swimlane;html=1;startSize=20;horizontal=0;fillColor=#B5739D;" vertex="1" parent="hWpidcnC6tugBeaJJdCY-1">
          <mxGeometry y="320" width="2725" height="150" as="geometry">
            <mxRectangle y="320" width="760" height="20" as="alternateBounds" />
          </mxGeometry>
        </mxCell>
        <mxCell id="hWpidcnC6tugBeaJJdCY-43" value="Extração Base Ordens Produção" style="rounded=1;whiteSpace=wrap;html=1;shadow=0;labelBackgroundColor=none;strokeWidth=1;fontFamily=Verdana;fontSize=8;align=center;fillColor=#CCE5FF;" vertex="1" parent="hWpidcnC6tugBeaJJdCY-77">
          <mxGeometry x="95" y="51" width="70" height="37" as="geometry" />
        </mxCell>
        <mxCell id="hWpidcnC6tugBeaJJdCY-44" value="" style="shape=umlActor;verticalLabelPosition=bottom;verticalAlign=top;html=1;outlineConnect=0;" vertex="1" parent="hWpidcnC6tugBeaJJdCY-77">
          <mxGeometry x="155" y="73.5" width="10" height="14" as="geometry" />
        </mxCell>
        <mxCell id="hWpidcnC6tugBeaJJdCY-134" value="Extração Custo Final AG" style="rounded=1;whiteSpace=wrap;html=1;shadow=0;labelBackgroundColor=none;strokeWidth=1;fontFamily=Verdana;fontSize=8;align=center;fillColor=#CCE5FF;" vertex="1" parent="hWpidcnC6tugBeaJJdCY-77">
          <mxGeometry x="766" y="51.5" width="70" height="37" as="geometry" />
        </mxCell>
        <mxCell id="hWpidcnC6tugBeaJJdCY-135" value="" style="shape=umlActor;verticalLabelPosition=bottom;verticalAlign=top;html=1;outlineConnect=0;" vertex="1" parent="hWpidcnC6tugBeaJJdCY-77">
          <mxGeometry x="826" y="73.5" width="10" height="14" as="geometry" />
        </mxCell>
        <mxCell id="hWpidcnC6tugBeaJJdCY-151" value="Extração &lt;br&gt;Custo Final Revenda" style="rounded=1;whiteSpace=wrap;html=1;shadow=0;labelBackgroundColor=none;strokeWidth=1;fontFamily=Verdana;fontSize=8;align=center;fillColor=#CCE5FF;" vertex="1" parent="hWpidcnC6tugBeaJJdCY-77">
          <mxGeometry x="1006" y="50.5" width="70" height="37" as="geometry" />
        </mxCell>
        <mxCell id="hWpidcnC6tugBeaJJdCY-152" value="" style="shape=umlActor;verticalLabelPosition=bottom;verticalAlign=top;html=1;outlineConnect=0;" vertex="1" parent="hWpidcnC6tugBeaJJdCY-77">
          <mxGeometry x="1066" y="73.5" width="10" height="14" as="geometry" />
        </mxCell>
        <mxCell id="hWpidcnC6tugBeaJJdCY-157" style="edgeStyle=orthogonalEdgeStyle;rounded=0;orthogonalLoop=1;jettySize=auto;html=1;fontSize=10;" edge="1" parent="hWpidcnC6tugBeaJJdCY-77">
          <mxGeometry relative="1" as="geometry">
            <mxPoint x="1116" y="-52" as="sourcePoint" />
            <mxPoint x="1155" y="521" as="targetPoint" />
            <Array as="points">
              <mxPoint x="1116" y="521" />
              <mxPoint x="1145" y="521" />
            </Array>
          </mxGeometry>
        </mxCell>
        <mxCell id="hWpidcnC6tugBeaJJdCY-143" style="edgeStyle=orthogonalEdgeStyle;rounded=0;orthogonalLoop=1;jettySize=auto;html=1;fontSize=10;" edge="1" parent="hWpidcnC6tugBeaJJdCY-77" source="hWpidcnC6tugBeaJJdCY-134">
          <mxGeometry relative="1" as="geometry">
            <mxPoint x="798" y="51" as="sourcePoint" />
            <mxPoint x="836" y="-69.94" as="targetPoint" />
            <Array as="points">
              <mxPoint x="806" y="-70" />
            </Array>
          </mxGeometry>
        </mxCell>
        <mxCell id="hWpidcnC6tugBeaJJdCY-149" style="edgeStyle=orthogonalEdgeStyle;rounded=0;orthogonalLoop=1;jettySize=auto;html=1;exitX=0.5;exitY=1;exitDx=0;exitDy=0;fontSize=10;" edge="1" parent="hWpidcnC6tugBeaJJdCY-77">
          <mxGeometry relative="1" as="geometry">
            <mxPoint x="966" y="-52" as="sourcePoint" />
            <mxPoint x="1006" y="71" as="targetPoint" />
            <Array as="points">
              <mxPoint x="966" y="71" />
            </Array>
          </mxGeometry>
        </mxCell>
        <mxCell id="hWpidcnC6tugBeaJJdCY-259" style="edgeStyle=orthogonalEdgeStyle;rounded=0;orthogonalLoop=1;jettySize=auto;html=1;fontSize=10;entryX=-0.027;entryY=0.535;entryDx=0;entryDy=0;entryPerimeter=0;" edge="1" parent="hWpidcnC6tugBeaJJdCY-77" source="hWpidcnC6tugBeaJJdCY-105">
          <mxGeometry relative="1" as="geometry">
            <mxPoint x="355" y="-51" as="sourcePoint" />
            <mxPoint x="383" y="362" as="targetPoint" />
            <Array as="points">
              <mxPoint x="355" y="361" />
              <mxPoint x="383" y="361" />
            </Array>
          </mxGeometry>
        </mxCell>
        <mxCell id="hWpidcnC6tugBeaJJdCY-89" value="Contabilidade" style="swimlane;html=1;startSize=20;horizontal=0;fillColor=light-dark(#ffea00, #a66d91);" vertex="1" parent="1">
          <mxGeometry x="185" y="429" width="2725" height="150" as="geometry">
            <mxRectangle y="320" width="760" height="20" as="alternateBounds" />
          </mxGeometry>
        </mxCell>
        <mxCell id="hWpidcnC6tugBeaJJdCY-172" value="Recebe Arquivo CPV" style="rounded=1;whiteSpace=wrap;html=1;shadow=0;labelBackgroundColor=none;strokeWidth=1;fontFamily=Verdana;fontSize=8;align=center;fillColor=#CCE5FF;" vertex="1" parent="hWpidcnC6tugBeaJJdCY-89">
          <mxGeometry x="1330" y="56.5" width="70" height="37" as="geometry" />
        </mxCell>
        <mxCell id="hWpidcnC6tugBeaJJdCY-173" value="" style="shape=umlActor;verticalLabelPosition=bottom;verticalAlign=top;html=1;outlineConnect=0;" vertex="1" parent="hWpidcnC6tugBeaJJdCY-89">
          <mxGeometry x="1390" y="79.5" width="10" height="14" as="geometry" />
        </mxCell>
        <mxCell id="hWpidcnC6tugBeaJJdCY-168" style="edgeStyle=orthogonalEdgeStyle;rounded=0;orthogonalLoop=1;jettySize=auto;html=1;exitX=0.5;exitY=1;exitDx=0;exitDy=0;fontSize=10;entryX=0;entryY=0.5;entryDx=0;entryDy=0;" edge="1" parent="hWpidcnC6tugBeaJJdCY-89">
          <mxGeometry relative="1" as="geometry">
            <mxPoint x="1266" y="-201.5" as="sourcePoint" />
            <mxPoint x="1329" y="75.5" as="targetPoint" />
            <Array as="points">
              <mxPoint x="1266" y="75.5" />
            </Array>
          </mxGeometry>
        </mxCell>
        <mxCell id="hWpidcnC6tugBeaJJdCY-255" style="edgeStyle=orthogonalEdgeStyle;rounded=0;orthogonalLoop=1;jettySize=auto;html=1;fontSize=10;exitX=0.5;exitY=0;exitDx=0;exitDy=0;" edge="1" parent="hWpidcnC6tugBeaJJdCY-89">
          <mxGeometry relative="1" as="geometry">
            <mxPoint x="419" y="191" as="sourcePoint" />
            <mxPoint x="448" y="-219" as="targetPoint" />
            <Array as="points">
              <mxPoint x="418" y="190" />
              <mxPoint x="418" y="-219" />
            </Array>
          </mxGeometry>
        </mxCell>
        <mxCell id="hWpidcnC6tugBeaJJdCY-100" value="Engenharia de Processos" style="swimlane;html=1;startSize=20;horizontal=0;fillColor=light-dark(#ffea00, #a66d91);" vertex="1" parent="1">
          <mxGeometry x="185" y="579" width="2725" height="150" as="geometry">
            <mxRectangle x="185" y="579" width="760" height="20" as="alternateBounds" />
          </mxGeometry>
        </mxCell>
        <mxCell id="hWpidcnC6tugBeaJJdCY-109" value="Recebe Arquivo Taxa Hora" style="rounded=1;whiteSpace=wrap;html=1;shadow=0;labelBackgroundColor=none;strokeWidth=1;fontFamily=Verdana;fontSize=8;align=center;fillColor=#CCE5FF;" vertex="1" parent="hWpidcnC6tugBeaJJdCY-100">
          <mxGeometry x="383" y="41" width="70" height="37" as="geometry" />
        </mxCell>
        <mxCell id="hWpidcnC6tugBeaJJdCY-115" value="Recebe Arquivo Horas Apontadas" style="rounded=1;whiteSpace=wrap;html=1;shadow=0;labelBackgroundColor=none;strokeWidth=1;fontFamily=Verdana;fontSize=8;align=center;fillColor=#CCE5FF;" vertex="1" parent="hWpidcnC6tugBeaJJdCY-100">
          <mxGeometry x="507" y="41" width="70" height="37" as="geometry" />
        </mxCell>
        <mxCell id="hWpidcnC6tugBeaJJdCY-128" value="Recebe Arquivo Horas Apontadas&lt;br&gt;OK" style="rounded=1;whiteSpace=wrap;html=1;shadow=0;labelBackgroundColor=none;strokeWidth=1;fontFamily=Verdana;fontSize=8;align=center;fillColor=#CCE5FF;" vertex="1" parent="hWpidcnC6tugBeaJJdCY-100">
          <mxGeometry x="632" y="40.5" width="70" height="37" as="geometry" />
        </mxCell>
        <mxCell id="hWpidcnC6tugBeaJJdCY-260" style="edgeStyle=orthogonalEdgeStyle;rounded=0;orthogonalLoop=1;jettySize=auto;html=1;exitX=0.5;exitY=1;exitDx=0;exitDy=0;fontSize=10;entryX=-0.027;entryY=0.535;entryDx=0;entryDy=0;entryPerimeter=0;" edge="1" parent="hWpidcnC6tugBeaJJdCY-100">
          <mxGeometry relative="1" as="geometry">
            <mxPoint x="603" y="-351" as="sourcePoint" />
            <mxPoint x="631" y="62" as="targetPoint" />
            <Array as="points">
              <mxPoint x="603" y="61" />
            </Array>
          </mxGeometry>
        </mxCell>
        <mxCell id="hWpidcnC6tugBeaJJdCY-155" value="DNAs" style="swimlane;html=1;startSize=20;horizontal=0;fillColor=light-dark(#ffea00, #a66d91);" vertex="1" parent="1">
          <mxGeometry x="185" y="729" width="2725" height="150" as="geometry">
            <mxRectangle y="320" width="760" height="20" as="alternateBounds" />
          </mxGeometry>
        </mxCell>
        <mxCell id="hWpidcnC6tugBeaJJdCY-158" value="Recebe Dados DNA Hailton&lt;br&gt;Despesa Real" style="rounded=1;whiteSpace=wrap;html=1;shadow=0;labelBackgroundColor=none;strokeWidth=1;fontFamily=Verdana;fontSize=8;align=center;fillColor=#CCE5FF;" vertex="1" parent="hWpidcnC6tugBeaJJdCY-155">
          <mxGeometry x="1156" y="51" width="70" height="37" as="geometry" />
        </mxCell>
        <mxCell id="hWpidcnC6tugBeaJJdCY-163" style="edgeStyle=orthogonalEdgeStyle;rounded=0;orthogonalLoop=1;jettySize=auto;html=1;fontSize=10;entryX=0;entryY=0.5;entryDx=0;entryDy=0;exitX=0.569;exitY=-0.008;exitDx=0;exitDy=0;exitPerimeter=0;" edge="1" parent="hWpidcnC6tugBeaJJdCY-155" source="hWpidcnC6tugBeaJJdCY-158">
          <mxGeometry relative="1" as="geometry">
            <mxPoint x="1196" y="34" as="sourcePoint" />
            <mxPoint x="1236.88" y="-519.54" as="targetPoint" />
            <Array as="points">
              <mxPoint x="1196" y="-520" />
            </Array>
          </mxGeometry>
        </mxCell>
        <mxCell id="hWpidcnC6tugBeaJJdCY-244" style="edgeStyle=orthogonalEdgeStyle;rounded=0;orthogonalLoop=1;jettySize=auto;html=1;fontSize=10;" edge="1" parent="1">
          <mxGeometry relative="1" as="geometry">
            <mxPoint x="1091" y="209" as="sourcePoint" />
            <mxPoint x="1131" y="209" as="targetPoint" />
            <Array as="points">
              <mxPoint x="1091" y="209" />
            </Array>
          </mxGeometry>
        </mxCell>
        <mxCell id="hWpidcnC6tugBeaJJdCY-98" value="Salvar arquivo de Ordens Produção" style="rounded=1;whiteSpace=wrap;html=1;shadow=0;labelBackgroundColor=none;strokeWidth=1;fontFamily=Verdana;fontSize=8;align=center;fillColor=#CCE5FF;" vertex="1" parent="1">
          <mxGeometry x="351" y="190" width="70" height="37" as="geometry" />
        </mxCell>
        <mxCell id="hWpidcnC6tugBeaJJdCY-99" value="" style="shape=umlActor;verticalLabelPosition=bottom;verticalAlign=top;html=1;outlineConnect=0;" vertex="1" parent="1">
          <mxGeometry x="406" y="213.5" width="10" height="14" as="geometry" />
        </mxCell>
        <mxCell id="hWpidcnC6tugBeaJJdCY-256" style="edgeStyle=orthogonalEdgeStyle;rounded=0;orthogonalLoop=1;jettySize=auto;html=1;fontSize=10;" edge="1" parent="1">
          <mxGeometry relative="1" as="geometry">
            <mxPoint x="472" y="331.94" as="sourcePoint" />
            <mxPoint x="502" y="210" as="targetPoint" />
            <Array as="points">
              <mxPoint x="472" y="209.94" />
            </Array>
          </mxGeometry>
        </mxCell>
        <mxCell id="hWpidcnC6tugBeaJJdCY-101" style="edgeStyle=orthogonalEdgeStyle;rounded=0;orthogonalLoop=1;jettySize=auto;html=1;exitX=0.5;exitY=1;exitDx=0;exitDy=0;fontSize=10;" edge="1" parent="1" source="hWpidcnC6tugBeaJJdCY-98">
          <mxGeometry relative="1" as="geometry">
            <mxPoint x="431" y="330" as="sourcePoint" />
            <mxPoint x="431" y="350" as="targetPoint" />
            <Array as="points">
              <mxPoint x="386" y="349" />
            </Array>
          </mxGeometry>
        </mxCell>
        <mxCell id="hWpidcnC6tugBeaJJdCY-102" value="Extração Relatório de Preços" style="rounded=1;whiteSpace=wrap;html=1;shadow=0;labelBackgroundColor=none;strokeWidth=1;fontFamily=Verdana;fontSize=8;align=center;fillColor=#CCE5FF;" vertex="1" parent="1">
          <mxGeometry x="431" y="330" width="70" height="37" as="geometry" />
        </mxCell>
        <mxCell id="hWpidcnC6tugBeaJJdCY-103" value="" style="shape=umlActor;verticalLabelPosition=bottom;verticalAlign=top;html=1;outlineConnect=0;" vertex="1" parent="1">
          <mxGeometry x="491" y="352" width="10" height="14" as="geometry" />
        </mxCell>
      </root>
    </mxGraphModel>
  </diagram>
</mxfile>
